<?xml version="1.0" encoding="utf-8"?>
<!-- Generator: Adobe Illustrator 27.0.0, SVG Export Plug-In . SVG Version: 6.00 Build 0)  -->
<svg version="1.1" id="Layer_1" xmlns="http://www.w3.org/2000/svg" xmlns:xlink="http://www.w3.org/1999/xlink" x="0px" y="0px"
	 viewBox="0 0 1024 1024" style="enable-background:new 0 0 1024 1024;" xml:space="preserve">
<style type="text/css">
	.st0{fill:#C4C6C8;}
</style>
<path class="st0" d="M947.7,508.5L555,140.2c-7-7.6-16.8-11.8-27.1-11.8s-20.1,4.3-27.2,11.8L73.9,510.9
	c-10,10.8-12.7,26.6-6.8,40.1s19.3,22.3,34,22.3h92.3v280.3c0,35.1,27.5,42.4,62.7,42.4h63.4h21.2h7h-8.1c23.4,0,42.4-19,42.4-42.4
	V682.4c0-23.4,19-42.4,42.5-42.4h173.9c23.5,0,42.4,19,42.4,42.4v171.3c0,23.4,19,42.4,42.4,42.4h84.2c35.2,0,64.7-7.2,64.7-42.4
	V573.3h90.7c0.1,0,0.1,0,0.3,0c20.5,0,37.1-16.6,37.1-37.1C960,525.2,955.2,515.4,947.7,508.5z"/>
</svg>
