<?xml version="1.0" encoding="utf-8"?>
<!-- Generator: Adobe Illustrator 27.0.0, SVG Export Plug-In . SVG Version: 6.00 Build 0)  -->
<svg version="1.1" id="Layer_1" xmlns="http://www.w3.org/2000/svg" xmlns:xlink="http://www.w3.org/1999/xlink" x="0px" y="0px"
	 viewBox="0 0 1024 1024" style="enable-background:new 0 0 1024 1024;" xml:space="preserve">
<style type="text/css">
	.st0{fill:#CDCFD0;}
</style>
<path class="st0" d="M771.4,529.9L507.7,794c-74.9,66.5-189.5,59.8-256-15.1c-61.1-68.7-61.1-172.2,0-240.9l341.3-341.3
	c42.3-40.2,108.7-40.2,151,0c41.3,41.9,41.3,109.2,0,151l-294.4,294c-12.3,13.2-32.9,14-46.1,1.7s-14-32.9-1.7-46.1l218.9-218.5
	c16.7-16.7,16.7-43.9,0-60.6s-43.9-16.7-60.6,0l0,0L341.3,537.6c-45.8,45.5-46.1,119.5-0.6,165.3c0.2,0.2,0.4,0.4,0.6,0.6
	c46.5,44.3,119.5,44.3,166,0l294-294.4c72.3-77.6,68-199.1-9.6-271.4c-73.7-68.7-188-68.7-261.8,0L188.6,479.1
	c-98.7,109.3-90.1,277.9,19.2,376.6c102.5,92.6,258.8,91.5,360.1-2.4L832,589.7c16.7-16.7,16.7-43.9,0-60.6s-43.9-16.7-60.6,0V529.9
	z"/>
</svg>
