<?xml version="1.0" encoding="utf-8"?>
<!-- Generator: Adobe Illustrator 27.0.0, SVG Export Plug-In . SVG Version: 6.00 Build 0)  -->
<svg version="1.1" id="Layer_1" xmlns="http://www.w3.org/2000/svg" xmlns:xlink="http://www.w3.org/1999/xlink" x="0px" y="0px"
	 viewBox="0 0 1024 1024" style="enable-background:new 0 0 1024 1024;" xml:space="preserve">
<style type="text/css">
	.st0{fill:#D9D9D9;}
</style>
<path class="st0" d="M1008,6.3c12.6,9.1,17.7,21.3,15.4,36.6L877.1,920.6c-1.9,11-8,19.6-18.3,25.7c-5.3,3-11.2,4.6-17.7,4.6
	c-4.2,0-8.8-1-13.7-2.9L568.6,842.3l-138.3,168.6c-6.9,8.8-16.2,13.1-28,13.1c-5,0-9.1-0.8-12.6-2.3c-7.2-2.7-13-7.1-17.4-13.4
	c-4.4-6.3-6.6-13.2-6.6-20.9V788l493.7-605.1L248.6,711.4L22.9,618.9C8.8,613.5,1.1,603,0,587.4c-0.8-15.2,5.3-26.5,18.3-33.7
	L969.1,5.1C974.9,1.7,981,0,987.4,0C995,0,1001.9,2.1,1008,6.3z"/>
</svg>
